<svg width="1058" height="386" viewBox="0 0 1058 386" fill="none" xmlns="http://www.w3.org/2000/svg">
<mask id="mask0_2_59" style="mask-type:luminance" maskUnits="userSpaceOnUse" x="320" y="189" width="53" height="55">
<path d="M320.341 189.577H372.806V243.065H320.341V189.577Z" fill="white"/>
</mask>
<g mask="url(#mask0_2_59)">
<mask id="mask1_2_59" style="mask-type:luminance" maskUnits="userSpaceOnUse" x="320" y="189" width="53" height="54">
<path d="M326.965 189.577H366.182C367.938 189.577 369.622 190.275 370.866 191.517C372.108 192.759 372.806 194.443 372.806 196.201V236.298C372.806 238.055 372.108 239.74 370.866 240.982C369.622 242.224 367.938 242.922 366.182 242.922H326.965C325.209 242.922 323.525 242.224 322.283 240.982C321.041 239.74 320.341 238.055 320.341 236.298V196.201C320.341 194.443 321.041 192.759 322.283 191.517C323.525 190.275 325.209 189.577 326.965 189.577Z" fill="white"/>
</mask>
<g mask="url(#mask1_2_59)">
<path d="M320.341 189.577H372.806V242.86H320.341V189.577Z" fill="black"/>
</g>
</g>
<mask id="mask2_2_59" style="mask-type:luminance" maskUnits="userSpaceOnUse" x="245" y="209" width="41" height="34">
<path d="M245.424 209.842H285.611V242.922H245.424V209.842Z" fill="white"/>
</mask>
<g mask="url(#mask2_2_59)">
<mask id="mask3_2_59" style="mask-type:luminance" maskUnits="userSpaceOnUse" x="245" y="209" width="41" height="34">
<path d="M252.048 209.842H278.947C280.704 209.842 282.389 210.539 283.631 211.781C284.873 213.023 285.571 214.708 285.571 216.466V236.298C285.571 238.055 284.873 239.74 283.631 240.982C282.389 242.224 280.704 242.922 278.947 242.922H252.048C250.291 242.922 248.606 242.224 247.364 240.982C246.122 239.74 245.424 238.055 245.424 236.298V216.466C245.424 214.708 246.122 213.023 247.364 211.781C248.606 210.539 250.291 209.842 252.048 209.842Z" fill="white"/>
</mask>
<g mask="url(#mask3_2_59)">
<path d="M245.424 209.842H285.611V242.922H245.424V209.842Z" fill="black"/>
</g>
</g>
<mask id="mask4_2_59" style="mask-type:luminance" maskUnits="userSpaceOnUse" x="246" y="164" width="76" height="78">
<path d="M246.931 164.296H321.021V241.821H246.931V164.296Z" fill="white"/>
</mask>
<g mask="url(#mask4_2_59)">
<mask id="mask5_2_59" style="mask-type:luminance" maskUnits="userSpaceOnUse" x="245" y="163" width="78" height="80">
<path d="M285.73 163.096L322.254 191.816L282.203 242.751L245.679 214.03L285.73 163.096Z" fill="white"/>
</mask>
<g mask="url(#mask5_2_59)">
<mask id="mask6_2_59" style="mask-type:luminance" maskUnits="userSpaceOnUse" x="247" y="164" width="74" height="78">
<path d="M288.334 165.143L319.651 189.769C321.088 190.899 321.338 192.981 320.207 194.418L284.306 240.077C283.175 241.515 281.093 241.764 279.656 240.633L248.337 216.008C246.9 214.877 246.651 212.795 247.782 211.356L283.683 165.699C284.814 164.262 286.895 164.012 288.334 165.143Z" fill="white"/>
</mask>
<g mask="url(#mask6_2_59)">
<path d="M285.73 163.096L322.254 191.816L282.203 242.751L245.679 214.03L285.73 163.096Z" fill="black"/>
</g>
</g>
</g>
<mask id="mask7_2_59" style="mask-type:luminance" maskUnits="userSpaceOnUse" x="298" y="143" width="39" height="58">
<path d="M298.15 143.078H336.238V200.209H298.15V143.078Z" fill="white"/>
</mask>
<g mask="url(#mask7_2_59)">
<mask id="mask8_2_59" style="mask-type:luminance" maskUnits="userSpaceOnUse" x="298" y="143" width="39" height="58">
<path d="M304.774 143.078H329.614C331.369 143.078 333.054 143.776 334.296 145.018C335.54 146.26 336.238 147.945 336.238 149.702V193.562C336.238 195.319 335.54 197.004 334.296 198.246C333.054 199.488 331.369 200.186 329.614 200.186H304.774C303.016 200.186 301.331 199.488 300.089 198.246C298.847 197.004 298.15 195.319 298.15 193.562V149.702C298.15 147.945 298.847 146.26 300.089 145.018C301.331 143.776 303.016 143.078 304.774 143.078Z" fill="white"/>
</mask>
<g mask="url(#mask8_2_59)">
<path d="M298.15 143.078H336.238V200.209H298.15V143.078Z" fill="black"/>
</g>
</g>
<mask id="mask9_2_59" style="mask-type:luminance" maskUnits="userSpaceOnUse" x="279" y="144" width="37" height="40">
<path d="M279.805 144.179H315.624V183.432H279.805V144.179Z" fill="white"/>
</mask>
<g mask="url(#mask9_2_59)">
<mask id="mask10_2_59" style="mask-type:luminance" maskUnits="userSpaceOnUse" x="278" y="143" width="39" height="42">
<path d="M301.111 143.333L316.943 155.627L294.422 184.632L278.59 172.338L301.111 143.333Z" fill="white"/>
</mask>
<g mask="url(#mask10_2_59)">
<mask id="mask11_2_59" style="mask-type:luminance" maskUnits="userSpaceOnUse" x="279" y="144" width="37" height="40">
<path d="M303.727 145.365L314.326 153.595C315.772 154.717 316.034 156.798 314.911 158.243L296.48 181.979C295.359 183.424 293.278 183.685 291.834 182.564L281.233 174.334C279.788 173.21 279.527 171.131 280.649 169.686L299.079 145.95C300.201 144.505 302.282 144.242 303.727 145.365Z" fill="white"/>
</mask>
<g mask="url(#mask11_2_59)">
<path d="M301.111 143.333L316.943 155.627L294.47 184.569L278.638 172.277L301.111 143.333Z" fill="black"/>
</g>
</g>
</g>
<path opacity="0.8" d="M442.36 242.96C437.413 242.96 432.98 242.12 429.06 240.44C425.14 238.667 422.013 236.147 419.68 232.88C417.44 229.52 416.32 225.46 416.32 220.7C416.32 215.94 417.44 211.973 419.68 208.8C422.013 205.533 425.187 203.107 429.2 201.52C433.307 199.84 437.973 199 443.2 199H462.24V195.08C462.24 191.813 461.213 189.153 459.16 187.1C457.107 184.953 453.84 183.88 449.36 183.88C444.973 183.88 441.707 184.907 439.56 186.96C437.413 188.92 436.013 191.487 435.36 194.66L419.12 189.2C420.24 185.653 422.013 182.433 424.44 179.54C426.96 176.553 430.273 174.173 434.38 172.4C438.58 170.533 443.667 169.6 449.64 169.6C458.787 169.6 466.02 171.887 471.34 176.46C476.66 181.033 479.32 187.66 479.32 196.34V222.24C479.32 225.04 480.627 226.44 483.24 226.44H488.84V241H477.08C473.627 241 470.78 240.16 468.54 238.48C466.3 236.8 465.18 234.56 465.18 231.76V231.62H462.52C462.147 232.74 461.307 234.233 460 236.1C458.693 237.873 456.64 239.46 453.84 240.86C451.04 242.26 447.213 242.96 442.36 242.96ZM445.44 228.68C450.387 228.68 454.4 227.327 457.48 224.62C460.653 221.82 462.24 218.133 462.24 213.56V212.16H444.46C441.193 212.16 438.627 212.86 436.76 214.26C434.893 215.66 433.96 217.62 433.96 220.14C433.96 222.66 434.94 224.713 436.9 226.3C438.86 227.887 441.707 228.68 445.44 228.68ZM523.279 241C518.706 241 514.972 239.6 512.079 236.8C509.279 233.907 507.879 230.08 507.879 225.32V186.12H490.519V171.56H507.879V150H525.519V171.56H544.559V186.12H525.519V222.24C525.519 225.04 526.826 226.44 529.439 226.44H542.879V241H523.279ZM560.527 241V143H578.167V180.1H580.687C581.433 178.607 582.6 177.113 584.187 175.62C585.773 174.127 587.873 172.913 590.487 171.98C593.193 170.953 596.6 170.44 600.707 170.44C606.12 170.44 610.833 171.7 614.847 174.22C618.953 176.647 622.127 180.053 624.367 184.44C626.607 188.733 627.727 193.773 627.727 199.56V241H610.087V200.96C610.087 195.733 608.78 191.813 606.167 189.2C603.647 186.587 600.007 185.28 595.247 185.28C589.833 185.28 585.633 187.1 582.647 190.74C579.66 194.287 578.167 199.28 578.167 205.72V241H560.527ZM646.796 241V143H664.436V241H646.796ZM715.624 242.96C708.717 242.96 702.604 241.513 697.284 238.62C692.057 235.633 687.95 231.48 684.964 226.16C682.07 220.747 680.624 214.4 680.624 207.12V205.44C680.624 198.16 682.07 191.86 684.964 186.54C687.857 181.127 691.917 176.973 697.144 174.08C702.37 171.093 708.437 169.6 715.344 169.6C722.157 169.6 728.084 171.14 733.124 174.22C738.164 177.207 742.084 181.407 744.884 186.82C747.684 192.14 749.084 198.347 749.084 205.44V211.46H698.544C698.73 216.22 700.504 220.093 703.864 223.08C707.224 226.067 711.33 227.56 716.184 227.56C721.13 227.56 724.77 226.487 727.104 224.34C729.437 222.193 731.21 219.813 732.424 217.2L746.844 224.76C745.537 227.187 743.624 229.847 741.104 232.74C738.677 235.54 735.41 237.967 731.304 240.02C727.197 241.98 721.97 242.96 715.624 242.96ZM698.684 198.3H731.164C730.79 194.287 729.157 191.067 726.264 188.64C723.464 186.213 719.777 185 715.204 185C710.444 185 706.664 186.213 703.864 188.64C701.064 191.067 699.337 194.287 698.684 198.3ZM797.824 242.96C790.918 242.96 784.711 241.56 779.204 238.76C773.698 235.96 769.358 231.9 766.184 226.58C763.011 221.26 761.424 214.867 761.424 207.4V205.16C761.424 197.693 763.011 191.3 766.184 185.98C769.358 180.66 773.698 176.6 779.204 173.8C784.711 171 790.918 169.6 797.824 169.6C804.731 169.6 810.938 171 816.444 173.8C821.951 176.6 826.291 180.66 829.464 185.98C832.638 191.3 834.224 197.693 834.224 205.16V207.4C834.224 214.867 832.638 221.26 829.464 226.58C826.291 231.9 821.951 235.96 816.444 238.76C810.938 241.56 804.731 242.96 797.824 242.96ZM797.824 227.28C803.238 227.28 807.718 225.553 811.264 222.1C814.811 218.553 816.584 213.513 816.584 206.98V205.58C816.584 199.047 814.811 194.053 811.264 190.6C807.811 187.053 803.331 185.28 797.824 185.28C792.411 185.28 787.931 187.053 784.384 190.6C780.838 194.053 779.064 199.047 779.064 205.58V206.98C779.064 213.513 780.838 218.553 784.384 222.1C787.931 225.553 792.411 227.28 797.824 227.28Z" fill="black"/>
</svg>
